<svg xmlns="http://www.w3.org/2000/svg" id="Layer_1" data-name="Layer 1" viewBox="0 0 1920 960.4"><defs><style>.cls-1,.cls-2{fill:none}.cls-1,.cls-3,.cls-4,.cls-5,.cls-6,.cls-7,.cls-8,.cls-9{stroke-width:0}.cls-10,.cls-11,.cls-12,.cls-13,.cls-2{stroke-width:4px}.cls-10,.cls-11,.cls-12,.cls-13,.cls-14,.cls-2{stroke-miterlimit:10}.cls-10,.cls-11,.cls-13,.cls-14,.cls-2{stroke:#000}.cls-10,.cls-14,.cls-6{fill:#fff}.cls-11,.cls-9{fill:#e7e7e7}.cls-12{stroke:#232428}.cls-12,.cls-13,.cls-5{fill:#8514f5}.cls-14{stroke-dasharray:0 0 40 27;stroke-width:2px}.cls-4{fill:#272428}.cls-7{fill:#e4e4e4}.cls-8{fill:#e90464}</style></defs><rect width="1982.09" height="1016.14" x="-36.05" y="-27.87" class="cls-4"/><g><g><path d="m338.09,289.42h706.06c24.29,0,44.01,19.72,44.01,44.01v658.41c0,24.29-19.72,44.01-44.01,44.01H338.09c-24.29,0-44.01-19.72-44.01-44.01V333.43c0-24.29,19.72-44.01,44.01-44.01Z" class="cls-5"/><path d="m1044.15,291.42c23.2,0,42.01,18.81,42.01,42.01v658.41c0,23.2-18.81,42.01-42.01,42.01H338.09c-23.2,0-42.01-18.81-42.01-42.01V333.43c0-23.2,18.81-42.01,42.01-42.01h706.06m0-4H338.09c-25.37,0-46.01,20.64-46.01,46.01v658.41c0,25.37,20.64,46.01,46.01,46.01h706.06c25.37,0,46.01-20.64,46.01-46.01V333.43c0-25.37-20.64-46.01-46.01-46.01h0Z" class="cls-3"/></g><path d="m457.15,126.61h1468.96c2.56,0,4.63,2.08,4.63,4.63v841.29c0,8.42-6.83,15.25-15.25,15.25H409.82c-2.56,0-4.63-2.08-4.63-4.63V178.57c0-28.68,23.28-51.96,51.96-51.96Z" class="cls-10"/><g><polyline points="1145.89 288.64 1145.89 956.86 405 956.86 405 288.64" class="cls-11"/><path d="m405,288.64h85.87s13.1-4.18,13.1-13.98v-48.56s1.76-13.43,15.64-13.43h389.14c2.41,0,14.53.11,14.53,14.09v48.89s2.97,13.29,15.42,13.29h980.87" class="cls-11"/><rect width="547.94" height="238" x="1291.4" y="427.76" class="cls-9" rx="29.59" ry="29.59"/><rect width="547.94" height="239.62" x="1267.68" y="401.87" class="cls-13" rx="29.59" ry="29.59"/></g><rect width="184.97" height="45.02" x="536.44" y="235.79" class="cls-12" rx="22.51" ry="22.51"/><g><line x1="886.49" x2="852.8" y1="241.45" y2="275.15" class="cls-2"/><line x1="886.49" x2="852.8" y1="275.15" y2="241.45" class="cls-2"/></g><rect width="131.87" height="44.02" x="644.27" y="433.64" class="cls-12" rx="22.01" ry="22.01"/><rect width="211.92" height="44.02" x="805.21" y="433.64" class="cls-10" rx="22.01" ry="22.01"/><rect width="211.92" height="44.02" x="710.21" y="505.35" class="cls-10" rx="22.01" ry="22.01"/><g><path d="m732.22,623.09c-13.24,0-24.01-10.77-24.01-24.01s10.77-24.01,24.01-24.01h240.03c13.24,0,24.01,10.77,24.01,24.01s-10.77,24.01-24.01,24.01h-240.03Z" class="cls-8"/><path d="m972.25,577.07c12.16,0,22.01,9.85,22.01,22.01h0c0,12.16-9.85,22.01-22.01,22.01h-240.03c-12.16,0-22.01-9.85-22.01-22.01h0c0-12.16,9.85-22.01,22.01-22.01h240.03m0-4h-240.03c-14.34,0-26.01,11.67-26.01,26.01s11.67,26.01,26.01,26.01h240.03c14.34,0,26.01-11.67,26.01-26.01s-11.67-26.01-26.01-26.01h0Z" class="cls-3"/></g><rect width="89.99" height="44.02" x="483.75" y="361.92" class="cls-6" rx="22.01" ry="22.01"/><rect width="89.99" height="44.02" x="483.75" y="432.92" class="cls-10" rx="22.01" ry="22.01"/><rect width="89.99" height="44.02" x="483.75" y="504.92" class="cls-10" rx="22.01" ry="22.01"/><rect width="89.99" height="44.02" x="483.75" y="576.92" class="cls-10" rx="22.01" ry="22.01"/><rect width="89.99" height="44.02" x="483.75" y="651.55" class="cls-6" rx="22.01" ry="22.01"/><rect width="89.99" height="44.02" x="483.75" y="723.55" class="cls-6" rx="22.01" ry="22.01"/><rect width="89.99" height="44.02" x="483.75" y="795.55" class="cls-6" rx="22.01" ry="22.01"/><rect width="89.99" height="44.02" x="483.75" y="867.55" class="cls-6" rx="22.01" ry="22.01"/><rect width="127.09" height="44.02" x="648.64" y="723.55" class="cls-6" rx="22.01" ry="22.01"/><rect width="270.7" height="44.02" x="805.25" y="723.55" class="cls-6" rx="22.01" ry="22.01"/><rect width="190.26" height="44.02" x="710.21" y="795.55" class="cls-6" rx="22.01" ry="22.01"/><rect width="147.49" height="44.02" x="928.46" y="795.55" class="cls-6" rx="22.01" ry="22.01"/><rect width="262.23" height="44.02" x="710.21" y="867.55" class="cls-6" rx="22.01" ry="22.01"/><rect width="550.44" height="129" x="1289.13" y="716.84" class="cls-7" rx="32.39" ry="32.39"/><rect width="550.44" height="129" x="1266.54" y="693.12" class="cls-14" rx="32.39" ry="32.39"/><rect width="52.14" height="50.42" x="1294.68" y="734.42" class="cls-13"/><rect width="400.36" height="47.8" x="1373.19" y="734.42" class="cls-10" rx="23.9" ry="23.9"/><g><polygon points="1677.74 739.07 1847.5 833.39 1753.87 840.47 1724.85 927.13 1677.74 739.07" class="cls-6"/><path d="m1680.8,743.06l159.9,88.83-85.66,6.48-2.65.2-.84,2.52-26.42,78.91-44.33-176.94m-6.12-7.98l49.9,199.17,30.77-91.89,98.96-7.48-179.63-99.79h0Z" class="cls-3"/></g></g><rect width="1920" height="960.4" y="0" class="cls-1"/></svg>